<?xml version="1.0" standalone="no"?>
<!DOCTYPE svg PUBLIC "-//W3C//DTD SVG 20010904//EN"
 "http://www.w3.org/TR/2001/REC-SVG-20010904/DTD/svg10.dtd">
<svg version="1.0" xmlns="http://www.w3.org/2000/svg"
 width="128.000000pt" height="128.000000pt" viewBox="0 0 128.000000 128.000000"
 preserveAspectRatio="xMidYMid meet">
<metadata>
Created by potrace 1.14, written by Peter Selinger 2001-2017
</metadata>
<g transform="translate(0.000000,128.000000) scale(0.100000,-0.100000)"
fill="#000000" stroke="none">
<path d="M29 833 c0 -16 -2 -37 -4 -48 -3 -11 -7 -54 -9 -95 -3 -41 -8 -93
-11 -115 -3 -24 1 -63 11 -98 l17 -57 486 2 c380 2 486 6 487 16 1 6 2 19 3
28 1 12 11 14 44 12 38 -3 42 -6 45 -31 l3 -28 71 3 70 3 19 50 c18 48 20 105
4 195 -2 14 -7 52 -10 85 -10 108 -3 100 -83 103 -40 2 -72 -1 -73 -5 -2 -27
-9 -47 -17 -52 -5 -3 -12 -19 -16 -35 -6 -23 -9 -27 -17 -15 -5 7 -9 22 -9 32
0 9 -7 17 -15 17 -9 0 -18 12 -21 30 l-7 30 -483 0 -484 0 -1 -27z m542 -182
c9 -1 16 -8 16 -16 0 -13 -12 -15 -65 -13 -39 2 -67 8 -69 15 -4 12 31 19 77
16 14 -1 32 -2 41 -2z"/>
</g>
</svg>
